Coordinates
version=1
nRows=20
nColumns=38
inDegrees=no

Units are S.I. units (second, meters, Newtons, ...)
If the header above contains a line with 'inDegrees', this indicates whether rotational values are in degrees (yes) or radians (no).

endheader
time	pelvis_tilt	pelvis_list	pelvis_rotation	pelvis_tx	pelvis_ty	pelvis_tz	hip_flexion_r	hip_adduction_r	hip_rotation_r	knee_angle_r	ankle_angle_r	subtalar_angle_r	mtp_angle_r	hip_flexion_l	hip_adduction_l	hip_rotation_l	knee_angle_l	ankle_angle_l	subtalar_angle_l	mtp_angle_l	lumbar_extension	lumbar_bending	lumbar_rotation	arm_flex_r	arm_add_r	arm_rot_r	elbow_flex_r	pro_sup_r	wrist_flex_r	wrist_dev_r	arm_flex_l	arm_add_l	arm_rot_l	elbow_flex_l	pro_sup_l	wrist_flex_l	wrist_dev_l
0	1.90528	1.45023	-0.199854	0.695138	-0.421071	0.93164	0.423642	0.0358377	-0.300921	0.481483	0.0419019	0	0	0.00179338	-0.144075	-0.0398227	1.06022	-0.116629	0	0	-0.123785	0.0790677	-0.140453	-0.148464	-0.104586	-0.218345	0.344121	1.32399	0	0	-0.209758	-0.468522	0.561021	0.857239	0.777077	0	0
0.01	1.86281	1.45086	-0.157427	0.696348	-0.409444	0.931946	0.415477	0.0398187	-0.30436	0.479501	0.0438542	0	0	0.0470065	-0.147329	-0.0327933	1.11757	-0.18013	0	0	-0.11996	0.0804213	-0.133278	-0.157787	-0.105128	-0.22257	0.354567	1.3217	0	0	-0.201808	-0.472404	0.57408	0.86024	0.776545	0	0
0.02	1.84275	1.45063	-0.138233	0.697605	-0.397526	0.932871	0.403821	0.0448497	-0.305611	0.477803	0.0476177	0	0	0.0849172	-0.149194	-0.0252156	1.16608	-0.238884	0	0	-0.118881	0.0817438	-0.127001	-0.166755	-0.105758	-0.223873	0.366115	1.31944	0	0	-0.194835	-0.474852	0.583765	0.861355	0.776696	0	0
0.03	1.84105	1.45098	-0.138331	0.698842	-0.385658	0.934287	0.390957	0.049807	-0.302152	0.478571	0.0536837	0	0	0.118574	-0.148329	-0.017419	1.21096	-0.275823	0	0	-0.12027	0.0819245	-0.121232	-0.173419	-0.106661	-0.222525	0.375598	1.31677	0	0	-0.188645	-0.475865	0.589342	0.860616	0.778551	0	0
0.04	1.84943	1.45234	-0.149305	0.700039	-0.373864	0.936069	0.377407	0.0545968	-0.293282	0.480185	0.0606232	0	0	0.15089	-0.145031	-0.0104529	1.25531	-0.278911	0	0	-0.122771	0.0807658	-0.116055	-0.178134	-0.108064	-0.216978	0.383042	1.31075	0	0	-0.183648	-0.475594	0.59145	0.858138	0.783884	0	0
0.05	1.87558	1.45494	-0.178707	0.701182	-0.362164	0.938279	0.361076	0.0584713	-0.280671	0.479718	0.0661623	0	0	0.18062	-0.139786	-0.00526876	1.29603	-0.257881	0	0	-0.127425	0.077838	-0.11175	-0.178803	-0.109581	-0.208687	0.384103	1.30301	0	0	-0.180426	-0.473906	0.587796	0.855559	0.791382	0	0
0.06	1.91169	1.45871	-0.218517	0.70226	-0.350582	0.940746	0.342555	0.0610057	-0.266532	0.476013	0.0706836	0	0	0.208717	-0.132673	-0.00158785	1.33072	-0.227397	0	0	-0.133015	0.0734347	-0.107541	-0.177418	-0.11077	-0.201221	0.381554	1.29718	0	0	-0.177526	-0.471879	0.583748	0.852857	0.796881	0	0
0.07	1.95094	1.46292	-0.261648	0.703243	-0.339138	0.943285	0.322069	0.0627617	-0.253604	0.468162	0.0749553	0	0	0.236333	-0.12423	0.00121129	1.35914	-0.196547	0	0	-0.138638	0.0686198	-0.103071	-0.175772	-0.111951	-0.194347	0.378152	1.2926	0	0	-0.174767	-0.469747	0.579787	0.850885	0.799712	0	0
0.08	1.99092	1.46673	-0.305147	0.704097	-0.327852	0.945802	0.299473	0.0643749	-0.243834	0.45586	0.0788078	0	0	0.263947	-0.11507	0.0046009	1.38161	-0.170218	0	0	-0.144288	0.0643789	-0.0982424	-0.174634	-0.113146	-0.189241	0.375485	1.2886	0	0	-0.170788	-0.467537	0.577629	0.849084	0.799181	0	0
0.09	2.02676	1.47019	-0.344069	0.704883	-0.316674	0.948196	0.276499	0.0655924	-0.237699	0.441538	0.0825528	0	0	0.291898	-0.10554	0.00900289	1.39835	-0.149778	0	0	-0.149388	0.0608185	-0.0929497	-0.175487	-0.114321	-0.18661	0.37791	1.28542	0	0	-0.165401	-0.465446	0.578009	0.847012	0.796244	0	0
0.1	2.05858	1.47349	-0.379036	0.705652	-0.305529	0.950432	0.253637	0.0664713	-0.23391	0.42636	0.0866238	0	0	0.319714	-0.0959453	0.0134983	1.40929	-0.136063	0	0	-0.153506	0.0578089	-0.0873363	-0.176816	-0.115497	-0.18498	0.379392	1.28327	0	0	-0.159541	-0.463341	0.57992	0.84443	0.792334	0	0
0.11	2.08663	1.47666	-0.410888	0.706414	-0.294508	0.952501	0.231386	0.0671122	-0.230877	0.410957	0.0905747	0	0	0.347014	-0.086708	0.0172701	1.41486	-0.126068	0	0	-0.157252	0.0554567	-0.0807156	-0.177874	-0.116786	-0.184539	0.378377	1.28305	0	0	-0.152808	-0.460918	0.582976	0.84111	0.789325	0	0
0.12	2.11846	1.4794	-0.447703	0.707203	-0.28356	0.954497	0.208658	0.0680602	-0.227107	0.39469	0.0940209	0	0	0.372506	-0.0784712	0.0191781	1.41489	-0.119395	0	0	-0.161755	0.0535321	-0.0725724	-0.179049	-0.118189	-0.185768	0.378388	1.28326	0	0	-0.145347	-0.458033	0.586449	0.837031	0.787304	0	0
0.13	2.15986	1.4821	-0.495637	0.708073	-0.272606	0.956404	0.185498	0.0685954	-0.220907	0.378697	0.0979768	0	0	0.395381	-0.070813	0.019072	1.40965	-0.113667	0	0	-0.167211	0.0509876	-0.0631425	-0.180307	-0.11958	-0.187077	0.379599	1.2842	0	0	-0.138524	-0.455227	0.588685	0.833826	0.787065	0	0
0.14	2.27182	1.49152	-0.612973	0.708617	-0.262386	0.95878	0.164049	0.057595	-0.214817	0.367705	0.103614	0	0	0.40894	-0.0421413	0.0296722	1.38914	-0.104704	0	0	-0.175544	0.0387199	-0.0573295	-0.177287	-0.119284	-0.187228	0.378023	1.28486	0	0	-0.130945	-0.453351	0.588532	0.830104	0.788158	0	0
0.15	2.287	1.48684	-0.640263	0.710043	-0.25078	0.959962	0.138423	0.0671419	-0.200996	0.351286	0.107078	0	0	0.432041	-0.0567447	0.0121576	1.38413	-0.0986285	0	0	-0.181535	0.0430513	-0.0423267	-0.181311	-0.122607	-0.186186	0.38245	1.28675	0	0	-0.128389	-0.450205	0.58755	0.83138	0.793884	0	0
0.16	2.36626	1.48994	-0.728681	0.711008	-0.239924	0.961498	0.116702	0.0635868	-0.192283	0.340375	0.112638	0	0	0.447224	-0.0474908	0.00856375	1.36404	-0.0866395	0	0	-0.188447	0.0368937	-0.0330697	-0.180805	-0.123578	-0.185892	0.383991	1.28586	0	0	-0.124787	-0.448171	0.586001	0.831076	0.79656	0	0
0.17	2.4464	1.49032	-0.819512	0.712148	-0.228908	0.96293	0.0917724	0.0623795	-0.181662	0.325651	0.116404	0	0	0.459887	-0.0453891	-0.00144539	1.34148	-0.0723933	0	0	-0.196426	0.0320581	-0.0227389	-0.18027	-0.124631	-0.185283	0.385308	1.28402	0	0	-0.122175	-0.446066	0.584099	0.83137	0.799541	0	0
0.18	2.64251	1.49773	-1.02199	0.713754	-0.21899	0.964775	0.0725474	0.0481815	-0.175033	0.318071	0.121558	0	0	0.467044	-0.0300744	0.00919574	1.29994	-0.0460099	0	0	-0.205502	0.0133552	-0.0192491	-0.174874	-0.121596	-0.18454	0.381418	1.28348	0	0	-0.116826	-0.446117	0.581924	0.828339	0.800569	0	0
0.19	2.5926	1.49029	-0.988061	0.714345	-0.207153	0.96525	0.0460118	0.058026	-0.160947	0.300423	0.125692	0	0	0.480071	-0.0400122	-0.0202998	1.28296	-0.0365006	0	0	-0.211139	0.0220359	-0.0032331	-0.178257	-0.126285	-0.183817	0.386684	1.28287	0	0	-0.118298	-0.441409	0.579974	0.83131	0.803459	0	0
